<?xml version="1.0" encoding="UTF-8"?><svg id="Layer_1" xmlns="http://www.w3.org/2000/svg" viewBox="0 0 2612.79 1264.61"><defs><style>.cls-1{fill:#415c66;}</style></defs><path class="cls-1" d="m1166.77,1035.15c3.23-8.18,2.11-16.84-2.98-23.18-3.51-4.36-11.98-11.26-29.31-8.46-18.52,2.99-44.47,7.04-51.05,8.06-.9.14-1.56.92-1.56,1.83v77.17c0,.74.66,1.3,1.39,1.18l17.6-2.82c.58-.09,1.01-.59,1.01-1.18v-26.92c6.08-.78,14.85-2.41,24.81-4.07l19.7,24.21c.29.36.75.53,1.2.46l19.49-3.12c1.16-.19,1.68-1.56.94-2.46l-19.12-23.49c8.28-3.3,14.81-9.46,17.88-17.23Zm-64.9,5.53v-11.74c8.56-1.34,22.41-3.53,35.79-5.69,6.66-1.07,9.16-.71,10.54,1.25,1.21,1.71.5,4.51-.05,5.54-1.33,2.5-4.52,3.68-10.61,4.79-14.57,2.65-35.57,5.98-35.67,5.84Z"/><g><path class="cls-1" d="m620.86,1086.84l-49.99,85.04c-.45.76.19,1.7,1.07,1.56l22.02-3.53c.88-.14,1.66-.67,2.11-1.44l6.56-11.16,47.66-8.14,6.36,9.93c.27.42.77.64,1.26.57l18.25-2.92c1.17-.19,1.76-1.51,1.12-2.5l-43.95-68.61c-.72-1.12-2.03-1.7-3.34-1.49l-6.79,1.09c-.98.16-1.84.75-2.35,1.6Zm-4.97,47.92l12.04-20.49,10.64,16.61-22.69,3.87Z"/><path class="cls-1" d="m1581.2,930.24c-23.18,0-45.02,18.86-48.69,42.04-3.67,23.18,12.2,42.04,35.38,42.04s45.02-18.86,48.69-42.04c3.67-23.18-12.2-42.04-35.38-42.04Zm16.11,42.04c-1.99,12.55-13.82,22.77-26.38,22.77s-21.15-10.21-19.16-22.77c1.99-12.56,13.82-22.77,26.38-22.77s21.15,10.21,19.16,22.77Z"/><path class="cls-1" d="m1.32,1264.6l359.75-57.67c.44-.07.76-.45.76-.89v-78.18c0-.55-.5-.98-1.04-.89L.96,1184.65c-.55.09-.96.57-.96,1.13v77.69c0,.7.63,1.24,1.32,1.13Z"/><path class="cls-1" d="m80.42,933.73l133.87-21.2c1.28-.2,2.23-1.31,2.23-2.61v-75.64c0-1.63-1.45-2.87-3.06-2.61l-132.27,20.95c-.63.1-1.2-.39-1.2-1.02v-364.97c0-.66.48-1.22,1.13-1.32l1397.61-223.87c.72-.12,1.25-.74,1.25-1.47l-.06-77c0-.92-.82-1.61-1.72-1.47L5.51,417.39c-3.17.51-5.51,3.24-5.51,6.46v687.27c0,2.2,1.97,3.88,4.14,3.53l72.85-11.67c1.73-.28,3.01-1.77,3.01-3.53v-165.22c0-.25.18-.46.42-.5Z"/><path class="cls-1" d="m1085,938.97v-463.55c0-.4.29-.74.68-.8l211.62-33.82c.75-.12,1.38-.63,1.66-1.33l32.01-81.09c.61-1.55-.69-3.17-2.34-2.91l-454.57,72.87c-.95.15-1.14,1.45-.27,1.86,5.81,2.73,11.5,5.93,17.03,9.69,20.97,14.24,36.13,33.13,44.42,56.96.34.99,1.33,1.59,2.36,1.43l66.36-10.6c.54-.09,1.03.33,1.03.88v462.54c0,1.32,1.18,2.33,2.49,2.12l75.7-12.12c1.04-.17,1.81-1.07,1.81-2.12Z"/><path class="cls-1" d="m798.25,801.09c-.49-.51-.53-1.3-.1-1.87,24.8-32.89,46.58-64.98,66.4-97.63,12.6-20.76,28.27-46.59,37.37-76.18,8.31-27.05,9.84-54.41,4.42-79.12-6.66-30.35-23.43-55.38-48.49-72.4-37.44-25.42-82.78-29.18-121.34-23.49-32.03,4.73-111.69,17.67-133,21.19-2.54.42-4.41,2.62-4.41,5.2l-.08,537.63c0,2.18,1.95,3.85,4.11,3.5l72.9-11.67c1.72-.28,2.99-1.76,2.99-3.5v-62.26c0-.52.2-1.02.55-1.4,24.35-26.22,46.51-51.14,66.87-75.25.28-.33.78-.34,1.08-.03l107.18,112.55c.81.85,1.98,1.24,3.13,1.06l87.35-13.99c2.82-.45,3.98-3.88,2.01-5.95l-148.93-156.39Zm-119.25-260.35c0-.51.37-.94.87-1.02,21.13-3.43,41.63-6.53,62.72-9.97,24.87-4.06,53.18-1.29,70.31,10.33,24.21,16.43,15.71,51.48,12.53,61.84-6.17,20.09-18.45,40.32-29.28,58.17-31.28,51.55-68.09,101.92-115.22,157.29-.66.77-1.93.31-1.93-.7v-275.94Z"/><path class="cls-1" d="m540.79,643.95c-5.35-21.18-13.44-53.19-28.42-81.22-15.06-28.18-42.99-62.47-90.54-65.84-23.43-1.66-57.65,3.89-87.66,39.7-17.17,20.49-27.99,44.95-35.51,63.97-19.97,50.53-29.67,107.73-29.67,174.87,0,34.88,3,68.75,8.93,100.69,6.09,32.82,13.5,67.65,31.15,101,11.67,22.07,24.23,38.81,38.38,51.17,19.14,16.72,41.2,25.33,64.53,25.33,4.94,0,9.94-.39,14.98-1.17,24.37-3.76,45.97-16.76,64.21-38.63,14.01-16.8,23.53-35.98,29.47-48.94,24.13-52.68,35.87-114.65,35.87-189.45,0-46.05-5.11-89.6-15.2-129.46l-.51-2.02Zm-92.89,287.61c-14.96,32.65-26.29,40.77-33.17,41.83-3.67.57-7.82.62-14.66-5.36-6.55-5.72-13.37-15.25-20.29-28.32-12.37-23.38-18.25-51.44-23.2-78.18-5.03-27.14-7.59-56.11-7.59-86.1,0-56.1,8.1-105.04,24.07-145.47,18.42-46.63,32.42-53.32,41.68-53.32.49,0,.97.02,1.44.05,25.55,1.81,40.61,61.4,47.04,86.85l.52,2.05c8.46,33.45,12.76,70.4,12.76,109.83,0,63.06-9.35,114.13-28.6,156.13Z"/><path class="cls-1" d="m1749.33,572.64l-134.25-411.43c-.28-.84-1.12-1.36-2-1.22l-78.84,12.63c-.87.14-1.52.89-1.52,1.78v692.97c0,1.31,1.17,2.31,2.47,2.1l75.74-12.13c1.03-.17,1.79-1.06,1.79-2.1v-439.93c0-.62.87-.76,1.06-.17l136.37,417.92c.35,1.08,1.44,1.75,2.57,1.57l77.1-12.35c.52-.08.9-.53.9-1.05V126.81c0-.88-.78-1.54-1.65-1.41l-77.15,12.36c-.69.11-1.2.71-1.2,1.41v433.26c0,.81-1.14.99-1.39.22Z"/><polygon class="cls-1" points="1851 818.83 1851 818.89 1851.02 818.89 1851 818.83"/><path class="cls-1" d="m1961.84,254.14l-76.76,12.29c-.78.13-1.36.8-1.36,1.6v544.4c0,.64.57,1.13,1.21,1.03l77.92-12.48c.5-.08.88-.52.88-1.03V255.74c0-1-.89-1.75-1.87-1.6Z"/><path class="cls-1" d="m2270.72,750.18V205.43c0-.67-.6-1.18-1.26-1.07l-77.83,12.46c-.53.08-.92.54-.92,1.07v284.6c0,.68-.95.83-1.16.18l-88.19-270.3c-.2-.6-.8-.97-1.43-.87l-78.14,12.47c-.63.1-1.09.64-1.09,1.27v544.33c0,.84.75,1.48,1.58,1.35l76.94-12.32c.85-.14,1.48-.87,1.48-1.73v-287.88c0-.12.17-.15.21-.03l89.44,274.08c.2.62.83,1,1.47.9l77.77-12.45c.64-.1,1.12-.66,1.12-1.31Z"/><path class="cls-1" d="m2405.66,183.11l-78.82,12.75c-.65.1-1.12.66-1.12,1.32v544.01c0,.72.64,1.26,1.35,1.15l284.82-44.8c.48-.08.83-.49.83-.97v-79.01c0-.6-.54-1.06-1.13-.97l-204.77,32.43c-.58.09-1.11-.36-1.11-.95v-83.24c0-.53.37-.97.89-1.05l117.5-18.61c.36-.06.62-.36.62-.72v-79.51c0-.45-.4-.79-.85-.72l-116.95,18.52c-.65.1-1.23-.4-1.23-1.05l-.02-217.08c0-.68.5-1.26,1.17-1.37l204.79-32.44c.63-.1,1.09-.64,1.09-1.27v-78.03c0-.79-.71-1.4-1.49-1.27l-205.56,32.99v-.09Z"/><path class="cls-1" d="m1476.49,331.78l-86.7,13.99c-1.31.21-2.42,1.1-2.9,2.35l-98.5,252.99c-.25.64-1.13.73-1.49.14l-61.72-97.94c-.8-1.27-2.29-1.94-3.77-1.71l-78.08,12.54c-2.53.41-3.82,3.27-2.46,5.44l117.45,186.36c.45.72.7,1.56.7,2.41v202.15c0,1.71,1.53,3.02,3.22,2.75l74.44-11.96c1.35-.22,2.34-1.38,2.34-2.75v-204.73c0-1.44.27-2.87.79-4.21l138.66-355.37c.51-1.3-.59-2.66-1.97-2.43Z"/><path class="cls-1" d="m1394.44,769.49l83.7-31.66c1.12-.42,1.86-1.49,1.86-2.69v-88.21c0-.37-.37-.62-.71-.49l-83.7,31.66c-1.12.42-1.86,1.49-1.86,2.69v88.21c0,.37.37.62.71.49Z"/><path class="cls-1" d="m1276.79,981.51l-49.99,85.04c-.45.76.19,1.7,1.07,1.56l22.02-3.53c.88-.14,1.66-.67,2.11-1.44l6.56-11.16,47.66-8.14,6.36,9.93c.27.42.77.64,1.26.57l18.25-2.92c1.17-.19,1.76-1.51,1.12-2.5l-43.95-68.61c-.72-1.12-2.03-1.7-3.34-1.49l-6.79,1.09c-.98.16-1.84.75-2.35,1.6Zm-4.97,47.92l12.04-20.49,10.64,16.61-22.69,3.87Z"/><path class="cls-1" d="m826.82,1094.58c1.37-1.9,2.5-3.95,3.35-6.12,3.23-8.18,2.11-16.84-2.98-23.18-3.51-4.36-11.97-10.76-29.31-7.97-21.36,3.45-43.92,6.96-44.14,6.99l-7.29,1.13c-.67.1-1.17.68-1.17,1.36l-.16,77.1c0,.86.76,1.51,1.6,1.37,6.71-1.11,33.21-5.47,55.29-8.79,24.74-3.72,33.01-17.1,31.21-29.73-.64-4.48-2.76-8.79-6.39-12.17Zm-61.54-12.33c8.56-1.34,21.76-3.37,35.79-5.69,9.96-1.64,11.62,1.17,11.62,3.92,0,2.5-.76,4.81-5.53,5.66-2.86.51-7.8,1.26-8.7,1.4-16.06,2.43-26.16,4.41-33.18,5.36v-10.64Zm33.44,36.56c-13.58,2.11-25.27,3.99-33.44,5.17v-10.82c8.2-1.05,21.33-3.65,35.66-5.67.76-.1,1.53-.2,2.31-.3,7.24-.93,10.14.25,10.14,3.72,0,5.04-3.14,6.12-14.69,7.91Z"/><path class="cls-1" d="m464.69,1110.56l-18.67,3.01c-.32.05-.56.33-.56.66v78.68c0,.39.35.68.73.62l64.65-10.44c.31-.05.54-.32.54-.64v-18.94c0-.4-.36-.7-.75-.64l-45.17,7.32v-58.97c0-.41-.37-.72-.77-.66Z"/><path class="cls-1" d="m959.12,1030.65c-23.18,0-45.02,18.86-48.69,42.04-3.67,23.18,12.2,42.04,35.38,42.04s45.02-18.86,48.69-42.04c3.67-23.18-12.2-42.04-35.38-42.04Zm16.11,42.04c-1.99,12.55-13.82,22.77-26.38,22.77s-21.15-10.21-19.16-22.77c1.99-12.56,13.82-22.77,26.38-22.77s21.15,10.21,19.16,22.77Z"/><path class="cls-1" d="m1844.39,969.52l18.34-2.94c.4-.06.7-.41.7-.82v-78.38c0-.51-.46-.9-.96-.82l-18.34,2.92c-.4.06-.7.41-.7.82v78.4c0,.51.46.9.96.82Z"/><path class="cls-1" d="m1387.61,982.73l32.1-5.09v59.03c0,.48.43.84.9.77l18.44-2.95c.38-.06.65-.39.65-.77v-59.25l30.41-4.82c.49-.08.84-.5.84-.99v-18.23c0-.61-.55-1.08-1.15-.99l-82.5,13.07c-.49.08-.84.5-.84.99v18.23c0,.61.55,1.08,1.15.99Z"/><path class="cls-1" d="m1968.34,869.44l-18.97,3.02c-.6.09-1.03.61-1.03,1.21v77.68c0,.75.68,1.33,1.42,1.21l18.58-2.98h0s45.24-7.26,45.24-7.26c.44-.07.76-.45.76-.89v-18.44c0-.55-.49-.97-1.04-.89l-44.96,7.21v-10.21l38.49-6.17c.44-.07.76-.45.76-.89v-18.44c0-.55-.49-.97-1.04-.89l-38.21,6.12v-9.16l45.24-7.25c.44-.07.76-.45.76-.89v-18.44c0-.55-.49-.97-1.04-.89l-44.96,7.21h0Z"/><path class="cls-1" d="m2271.2,901.03l340.58-55.03c.59-.09,1.02-.6,1.02-1.19v-77.27c0-.75-.67-1.31-1.4-1.19l-340.26,54.97c-.29.05-.51.3-.51.59l-.12,78.53c0,.37.33.65.7.59Z"/><path class="cls-1" d="m1884.09,116.54c-.4.06-.7.41-.7.82l.11,78.42c0,.51.46.9.96.82l727.59-116.51c.43-.07.75-.44.75-.87V.89c0-.54-.49-.96-1.03-.87l-727.68,116.52Z"/><path class="cls-1" d="m1771.46,937.88c3.23-8.18,2.11-16.84-2.98-23.18-3.51-4.36-11.98-11.26-29.31-8.46-18.52,2.99-44.47,7.04-51.05,8.06-.9.14-1.56.92-1.56,1.83v77.17c0,.74.66,1.3,1.39,1.18l17.6-2.82c.58-.09,1.01-.59,1.01-1.18v-26.92c6.08-.78,14.85-2.41,24.81-4.07l19.7,24.21c.29.36.75.53,1.2.46l19.49-3.12c1.16-.19,1.68-1.56.94-2.46l-19.12-23.49c8.28-3.3,14.81-9.46,17.88-17.23Zm-64.9,5.53v-11.74c8.56-1.34,22.41-3.53,35.79-5.69,6.66-1.07,9.16-.71,10.54,1.25,1.21,1.71.5,4.51-.05,5.54-1.33,2.5-4.52,3.68-10.61,4.79-14.57,2.65-35.57,5.98-35.67,5.84Z"/><path class="cls-1" d="m2176.46,873.88c-3.96-3.03-10.78-6.31-20.83-4.69-15.34,2.46-23.03,3.63-34.66,5.39l-10.51,1.6c-1.91.29-2.64-.26-2.88-.44-.64-.48-1-1.28-1.07-1.81-.31-2.45-.77-6.15,3.84-6.85,8.33-1.27,19-2.98,30.31-4.78,11.64-1.86,21.46-3.45,34.29-5.44.46-.07.81-.47.81-.94v-18.34c0-.58-.52-1.02-1.09-.93-12.9,2-25.58,4.04-37.16,5.89-11.27,1.8-21.91,3.5-30.17,4.76-14.26,2.18-22.56,13.87-20.66,29.1.75,6.03,3.98,11.6,8.85,15.28,4.97,3.76,11.35,5.27,17.96,4.26l10.5-1.6c11.68-1.77,19.4-2.94,34.83-5.42,2.43-.39,4.28-.11,5.5.82,1.41,1.08,2.02,2.93,2.1,3.67.02.17.37,4.19-5.53,5.14-1.59.26-3.74.61-6.39,1.05-11.78,1.94-30.83,5.09-59.52,9.42-.73.11-1.28.75-1.28,1.49l.14,17.31c0,.91.83,1.6,1.73,1.46,28.73-4.46,50.4-8.01,62.17-9.95,2.63-.43,4.76-.78,6.34-1.04,7.34-1.19,13.38-4.69,17.47-10.13,3.64-4.84,5.37-10.98,4.76-16.84-.71-6.76-4.38-13.29-9.82-17.46Z"/></g></svg>